<svg width="32" height="31" viewBox="0 0 32 31" fill="none" xmlns="http://www.w3.org/2000/svg">
<path d="M6.45455 18.5843L7.18563 18.4169L6.45455 18.5843ZM22.3963 8.29784L21.7592 8.69357L22.3963 8.29784ZM25.3546 11.9975L24.8285 12.5319L25.3546 11.9975ZM9.50008 24.4389L9.25753 25.1486L9.50008 24.4389ZM6.64536 11.9975L6.11919 11.463L6.64536 11.9975ZM13.6394 6.36733L13.5509 7.11208L13.6394 6.36733ZM24.6932 26.5896L23.9474 26.5102L24.6932 26.5896ZM18.5701 29.542L18.9724 28.909L18.5701 29.542ZM2.61345 15.9668L2.08728 15.4323L2.61345 15.9668ZM22.4999 24.4389L22.2574 23.7292L22.4999 24.4389ZM18.7608 3.8662L21.7592 8.69357L23.0334 7.90212L20.035 3.07475L18.7608 3.8662ZM24.8285 12.5319L28.8604 16.5013L29.9127 15.4323L25.8808 11.463L24.8285 12.5319ZM27.6314 21.8926L22.2574 23.7292L22.7425 25.1486L28.1165 23.312L27.6314 21.8926ZM17.8375 25.852L13.5169 28.5981L14.3215 29.864L18.6421 27.1179L17.8375 25.852ZM8.28247 25.92C8.04757 23.4211 7.69864 20.6577 7.18563 18.4169L5.72346 18.7517C6.21438 20.8959 6.5561 23.5822 6.78905 26.0604L8.28247 25.92ZM7.18563 18.4169C6.67369 16.1808 5.78769 13.5451 4.91346 11.1948L3.50756 11.7178C4.37456 14.0486 5.23356 16.6119 5.72346 18.7517L7.18563 18.4169ZM8.46929 6.50809L13.5509 7.11208L13.728 5.62257L8.64633 5.01857L8.46929 6.50809ZM18.4491 7.11208L24.1068 6.43962L23.9297 4.9501L18.272 5.62257L18.4491 7.11208ZM27.5501 10.7627L25.6451 16.0816L27.0573 16.5873L28.9622 11.2685L27.5501 10.7627ZM24.5467 20.8813L23.9474 26.5102L25.439 26.669L26.0383 21.0401L24.5467 20.8813ZM18.9724 28.909L14.1625 25.852L13.3579 27.1179L18.1678 30.175L18.9724 28.909ZM9.74262 23.7292L4.36863 21.8926L3.88354 23.312L9.25753 25.1486L9.74262 23.7292ZM3.13962 16.5013L7.17152 12.5319L6.11919 11.463L2.08728 15.4323L3.13962 16.5013ZM10.2408 8.69357L13.2392 3.8662L11.965 3.07475L8.96658 7.90211L10.2408 8.69357ZM21.7592 8.69357C22.6266 10.0901 23.6569 11.3786 24.8285 12.5319L25.8808 11.463C24.794 10.393 23.8381 9.19768 23.0334 7.90212L21.7592 8.69357ZM25.6451 16.0816C25.0898 17.6322 24.721 19.2434 24.5467 20.8813L26.0383 21.0401C26.2 19.5206 26.5421 18.0259 27.0573 16.5873L25.6451 16.0816ZM14.1625 25.852C12.7783 24.9722 11.2946 24.2597 9.74262 23.7292L9.25753 25.1486C10.6974 25.6407 12.0738 26.3018 13.3579 27.1179L14.1625 25.852ZM7.17152 12.5319C8.34305 11.3786 9.37337 10.0901 10.2408 8.69357L8.96658 7.90211C8.16186 9.19768 7.20603 10.393 6.11919 11.463L7.17152 12.5319ZM13.5509 7.11208C15.1779 7.30547 16.8221 7.30547 18.4491 7.11208L18.272 5.62257C16.7627 5.80197 15.2373 5.80197 13.728 5.62257L13.5509 7.11208ZM24.1068 6.43962C26.5039 6.1547 28.364 8.4901 27.5501 10.7627L28.9622 11.2685C30.1518 7.94697 27.4332 4.53368 23.9297 4.9501L24.1068 6.43962ZM28.8604 16.5013C30.5823 18.1965 29.9179 21.1112 27.6314 21.8926L28.1165 23.312C31.4583 22.1699 32.4294 17.9099 29.9127 15.4323L28.8604 16.5013ZM23.9474 26.5102C23.6922 28.9076 21.0071 30.2023 18.9724 28.909L18.1678 30.175C21.1417 32.0651 25.066 30.1729 25.439 26.669L23.9474 26.5102ZM13.5169 28.5981C11.4027 29.9418 8.52356 28.4848 8.28247 25.92L6.78905 26.0604C7.12836 29.67 11.2018 31.8469 14.3215 29.864L13.5169 28.5981ZM4.36863 21.8926C2.08213 21.1112 1.41769 18.1965 3.13962 16.5013L2.08728 15.4323C-0.429383 17.9099 0.541724 22.1699 3.88354 23.312L4.36863 21.8926ZM4.91346 11.1948C4.01439 8.77776 5.97899 6.21209 8.46929 6.50809L8.64633 5.01857C4.9716 4.5818 2.24219 8.31592 3.50756 11.7178L4.91346 11.1948ZM22.2574 23.7292C20.7054 24.2597 19.2217 24.9722 17.8375 25.852L18.6421 27.1179C19.9262 26.3018 21.3027 25.6407 22.7425 25.1486L22.2574 23.7292ZM20.035 3.07475C18.1768 0.0831001 13.8232 0.0831003 11.965 3.07475L13.2392 3.8662C14.5106 1.81928 17.4894 1.81928 18.7608 3.8662L20.035 3.07475Z" fill="url(#paint0_angular_1_14)"/>
<path d="M6.45455 18.5843L7.18563 18.4169L6.45455 18.5843ZM22.3963 8.29784L21.7592 8.69357L22.3963 8.29784ZM25.3546 11.9975L24.8285 12.5319L25.3546 11.9975ZM9.50008 24.4389L9.25753 25.1486L9.50008 24.4389ZM6.64536 11.9975L6.11919 11.463L6.64536 11.9975ZM13.6394 6.36733L13.5509 7.11208L13.6394 6.36733ZM24.6932 26.5896L23.9474 26.5102L24.6932 26.5896ZM18.5701 29.542L18.9724 28.909L18.5701 29.542ZM2.61345 15.9668L2.08728 15.4323L2.61345 15.9668ZM22.4999 24.4389L22.2574 23.7292L22.4999 24.4389ZM18.7608 3.8662L21.7592 8.69357L23.0334 7.90212L20.035 3.07475L18.7608 3.8662ZM24.8285 12.5319L28.8604 16.5013L29.9127 15.4323L25.8808 11.463L24.8285 12.5319ZM27.6314 21.8926L22.2574 23.7292L22.7425 25.1486L28.1165 23.312L27.6314 21.8926ZM17.8375 25.852L13.5169 28.5981L14.3215 29.864L18.6421 27.1179L17.8375 25.852ZM8.28247 25.92C8.04757 23.4211 7.69864 20.6577 7.18563 18.4169L5.72346 18.7517C6.21438 20.8959 6.5561 23.5822 6.78905 26.0604L8.28247 25.92ZM7.18563 18.4169C6.67369 16.1808 5.78769 13.5451 4.91346 11.1948L3.50756 11.7178C4.37456 14.0486 5.23356 16.6119 5.72346 18.7517L7.18563 18.4169ZM8.46929 6.50809L13.5509 7.11208L13.728 5.62257L8.64633 5.01857L8.46929 6.50809ZM18.4491 7.11208L24.1068 6.43962L23.9297 4.9501L18.272 5.62257L18.4491 7.11208ZM27.5501 10.7627L25.6451 16.0816L27.0573 16.5873L28.9622 11.2685L27.5501 10.7627ZM24.5467 20.8813L23.9474 26.5102L25.439 26.669L26.0383 21.0401L24.5467 20.8813ZM18.9724 28.909L14.1625 25.852L13.3579 27.1179L18.1678 30.175L18.9724 28.909ZM9.74262 23.7292L4.36863 21.8926L3.88354 23.312L9.25753 25.1486L9.74262 23.7292ZM3.13962 16.5013L7.17152 12.5319L6.11919 11.463L2.08728 15.4323L3.13962 16.5013ZM10.2408 8.69357L13.2392 3.8662L11.965 3.07475L8.96658 7.90211L10.2408 8.69357ZM21.7592 8.69357C22.6266 10.0901 23.6569 11.3786 24.8285 12.5319L25.8808 11.463C24.794 10.393 23.8381 9.19768 23.0334 7.90212L21.7592 8.69357ZM25.6451 16.0816C25.0898 17.6322 24.721 19.2434 24.5467 20.8813L26.0383 21.0401C26.2 19.5206 26.5421 18.0259 27.0573 16.5873L25.6451 16.0816ZM14.1625 25.852C12.7783 24.9722 11.2946 24.2597 9.74262 23.7292L9.25753 25.1486C10.6974 25.6407 12.0738 26.3018 13.3579 27.1179L14.1625 25.852ZM7.17152 12.5319C8.34305 11.3786 9.37337 10.0901 10.2408 8.69357L8.96658 7.90211C8.16186 9.19768 7.20603 10.393 6.11919 11.463L7.17152 12.5319ZM13.5509 7.11208C15.1779 7.30547 16.8221 7.30547 18.4491 7.11208L18.272 5.62257C16.7627 5.80197 15.2373 5.80197 13.728 5.62257L13.5509 7.11208ZM24.1068 6.43962C26.5039 6.1547 28.364 8.4901 27.5501 10.7627L28.9622 11.2685C30.1518 7.94697 27.4332 4.53368 23.9297 4.9501L24.1068 6.43962ZM28.8604 16.5013C30.5823 18.1965 29.9179 21.1112 27.6314 21.8926L28.1165 23.312C31.4583 22.1699 32.4294 17.9099 29.9127 15.4323L28.8604 16.5013ZM23.9474 26.5102C23.6922 28.9076 21.0071 30.2023 18.9724 28.909L18.1678 30.175C21.1417 32.0651 25.066 30.1729 25.439 26.669L23.9474 26.5102ZM13.5169 28.5981C11.4027 29.9418 8.52356 28.4848 8.28247 25.92L6.78905 26.0604C7.12836 29.67 11.2018 31.8469 14.3215 29.864L13.5169 28.5981ZM4.36863 21.8926C2.08213 21.1112 1.41769 18.1965 3.13962 16.5013L2.08728 15.4323C-0.429383 17.9099 0.541724 22.1699 3.88354 23.312L4.36863 21.8926ZM4.91346 11.1948C4.01439 8.77776 5.97899 6.21209 8.46929 6.50809L8.64633 5.01857C4.9716 4.5818 2.24219 8.31592 3.50756 11.7178L4.91346 11.1948ZM22.2574 23.7292C20.7054 24.2597 19.2217 24.9722 17.8375 25.852L18.6421 27.1179C19.9262 26.3018 21.3027 25.6407 22.7425 25.1486L22.2574 23.7292ZM20.035 3.07475C18.1768 0.0831001 13.8232 0.0831003 11.965 3.07475L13.2392 3.8662C14.5106 1.81928 17.4894 1.81928 18.7608 3.8662L20.035 3.07475Z" fill="white"/>
<path d="M6.45455 18.5843L7.18563 18.4169L6.45455 18.5843ZM22.3963 8.29784L21.7592 8.69357L22.3963 8.29784ZM25.3546 11.9975L24.8285 12.5319L25.3546 11.9975ZM9.50008 24.4389L9.25753 25.1486L9.50008 24.4389ZM6.64536 11.9975L6.11919 11.463L6.64536 11.9975ZM13.6394 6.36733L13.5509 7.11208L13.6394 6.36733ZM24.6932 26.5896L23.9474 26.5102L24.6932 26.5896ZM18.5701 29.542L18.9724 28.909L18.5701 29.542ZM2.61345 15.9668L2.08728 15.4323L2.61345 15.9668ZM22.4999 24.4389L22.2574 23.7292L22.4999 24.4389ZM18.7608 3.8662L21.7592 8.69357L23.0334 7.90212L20.035 3.07475L18.7608 3.8662ZM24.8285 12.5319L28.8604 16.5013L29.9127 15.4323L25.8808 11.463L24.8285 12.5319ZM27.6314 21.8926L22.2574 23.7292L22.7425 25.1486L28.1165 23.312L27.6314 21.8926ZM17.8375 25.852L13.5169 28.5981L14.3215 29.864L18.6421 27.1179L17.8375 25.852ZM8.28247 25.92C8.04757 23.4211 7.69864 20.6577 7.18563 18.4169L5.72346 18.7517C6.21438 20.8959 6.5561 23.5822 6.78905 26.0604L8.28247 25.92ZM7.18563 18.4169C6.67369 16.1808 5.78769 13.5451 4.91346 11.1948L3.50756 11.7178C4.37456 14.0486 5.23356 16.6119 5.72346 18.7517L7.18563 18.4169ZM8.46929 6.50809L13.5509 7.11208L13.728 5.62257L8.64633 5.01857L8.46929 6.50809ZM18.4491 7.11208L24.1068 6.43962L23.9297 4.9501L18.272 5.62257L18.4491 7.11208ZM27.5501 10.7627L25.6451 16.0816L27.0573 16.5873L28.9622 11.2685L27.5501 10.7627ZM24.5467 20.8813L23.9474 26.5102L25.439 26.669L26.0383 21.0401L24.5467 20.8813ZM18.9724 28.909L14.1625 25.852L13.3579 27.1179L18.1678 30.175L18.9724 28.909ZM9.74262 23.7292L4.36863 21.8926L3.88354 23.312L9.25753 25.1486L9.74262 23.7292ZM3.13962 16.5013L7.17152 12.5319L6.11919 11.463L2.08728 15.4323L3.13962 16.5013ZM10.2408 8.69357L13.2392 3.8662L11.965 3.07475L8.96658 7.90211L10.2408 8.69357ZM21.7592 8.69357C22.6266 10.0901 23.6569 11.3786 24.8285 12.5319L25.8808 11.463C24.794 10.393 23.8381 9.19768 23.0334 7.90212L21.7592 8.69357ZM25.6451 16.0816C25.0898 17.6322 24.721 19.2434 24.5467 20.8813L26.0383 21.0401C26.2 19.5206 26.5421 18.0259 27.0573 16.5873L25.6451 16.0816ZM14.1625 25.852C12.7783 24.9722 11.2946 24.2597 9.74262 23.7292L9.25753 25.1486C10.6974 25.6407 12.0738 26.3018 13.3579 27.1179L14.1625 25.852ZM7.17152 12.5319C8.34305 11.3786 9.37337 10.0901 10.2408 8.69357L8.96658 7.90211C8.16186 9.19768 7.20603 10.393 6.11919 11.463L7.17152 12.5319ZM13.5509 7.11208C15.1779 7.30547 16.8221 7.30547 18.4491 7.11208L18.272 5.62257C16.7627 5.80197 15.2373 5.80197 13.728 5.62257L13.5509 7.11208ZM24.1068 6.43962C26.5039 6.1547 28.364 8.4901 27.5501 10.7627L28.9622 11.2685C30.1518 7.94697 27.4332 4.53368 23.9297 4.9501L24.1068 6.43962ZM28.8604 16.5013C30.5823 18.1965 29.9179 21.1112 27.6314 21.8926L28.1165 23.312C31.4583 22.1699 32.4294 17.9099 29.9127 15.4323L28.8604 16.5013ZM23.9474 26.5102C23.6922 28.9076 21.0071 30.2023 18.9724 28.909L18.1678 30.175C21.1417 32.0651 25.066 30.1729 25.439 26.669L23.9474 26.5102ZM13.5169 28.5981C11.4027 29.9418 8.52356 28.4848 8.28247 25.92L6.78905 26.0604C7.12836 29.67 11.2018 31.8469 14.3215 29.864L13.5169 28.5981ZM4.36863 21.8926C2.08213 21.1112 1.41769 18.1965 3.13962 16.5013L2.08728 15.4323C-0.429383 17.9099 0.541724 22.1699 3.88354 23.312L4.36863 21.8926ZM4.91346 11.1948C4.01439 8.77776 5.97899 6.21209 8.46929 6.50809L8.64633 5.01857C4.9716 4.5818 2.24219 8.31592 3.50756 11.7178L4.91346 11.1948ZM22.2574 23.7292C20.7054 24.2597 19.2217 24.9722 17.8375 25.852L18.6421 27.1179C19.9262 26.3018 21.3027 25.6407 22.7425 25.1486L22.2574 23.7292ZM20.035 3.07475C18.1768 0.0831001 13.8232 0.0831003 11.965 3.07475L13.2392 3.8662C14.5106 1.81928 17.4894 1.81928 18.7608 3.8662L20.035 3.07475Z" fill="url(#paint1_linear_1_14)"/>
<defs>
<radialGradient id="paint0_angular_1_14" cx="0" cy="0" r="1" gradientUnits="userSpaceOnUse" gradientTransform="translate(16 16.4992) rotate(90) scale(16.5008 16.9722)">
<stop offset="0.0784171" stop-color="#4750FF"/>
<stop offset="0.21564" stop-color="#FF3E5E"/>
<stop offset="0.46" stop-color="#FF9004"/>
<stop offset="0.637899" stop-color="#FF2E54"/>
<stop offset="0.786296" stop-color="#DD1AFF"/>
<stop offset="0.926825" stop-color="#DD1AFF"/>
<stop offset="1" stop-color="#441AFF"/>
</radialGradient>
<linearGradient id="paint1_linear_1_14" x1="27.5" y1="27.2659" x2="3.679" y2="4.75503" gradientUnits="userSpaceOnUse">
<stop stop-color="#C800FF"/>
<stop offset="0.305" stop-color="#FF2C9B"/>
<stop offset="0.7" stop-color="#FF7B00"/>
<stop offset="0.885" stop-color="#FF8504"/>
<stop offset="1" stop-color="#FFD363"/>
</linearGradient>
</defs>
</svg>
